<svg width="190" height="44" viewBox="0 0 190 44" fill="none" xmlns="http://www.w3.org/2000/svg">
<path d="M23.6145 33H19.4865L18.9105 23.752C18.7185 20.4453 18.6225 17.8213 18.6225 15.88V14.728L14.5905 30.6H10.5905L6.3025 14.696C6.34517 16.104 6.3665 17.1707 6.3665 17.896C6.3665 19.8373 6.3025 21.832 6.1745 23.88L5.6305 33H1.5345L3.2945 10.888H8.7345L12.6705 26.376L16.3825 10.888H21.8865L23.6145 33ZM34.4698 15.592C36.9658 15.592 38.9071 16.392 40.2938 17.992C41.7018 19.5707 42.4058 21.7467 42.4058 24.52C42.4058 26.2907 42.0858 27.8587 41.4458 29.224C40.8058 30.568 39.8884 31.6133 38.6938 32.36C37.4991 33.1067 36.0804 33.48 34.4378 33.48C31.9418 33.48 29.9898 32.6907 28.5818 31.112C27.1738 29.512 26.4698 27.3147 26.4698 24.52C26.4698 22.7493 26.7898 21.192 27.4298 19.848C28.0698 18.504 28.9871 17.4587 30.1818 16.712C31.3978 15.9653 32.8271 15.592 34.4698 15.592ZM34.4698 18.696C32.0164 18.696 30.7898 20.6373 30.7898 24.52C30.7898 26.5253 31.0884 28.008 31.6858 28.968C32.3044 29.9067 33.2218 30.376 34.4378 30.376C35.6538 30.376 36.5604 29.896 37.1578 28.936C37.7764 27.976 38.0858 26.504 38.0858 24.52C38.0858 22.536 37.7764 21.0747 37.1578 20.136C36.5604 19.176 35.6644 18.696 34.4698 18.696ZM55.9413 32.2C55.3439 32.6267 54.6719 32.9467 53.9253 33.16C53.1999 33.3733 52.4533 33.48 51.6853 33.48C50.0213 33.4587 48.7519 32.9893 47.8773 32.072C47.0239 31.1333 46.5973 29.7573 46.5973 27.944V19.016H43.9413V16.072H46.5973V12.328L50.6933 11.848V16.072H54.6293L54.2133 19.016H50.6933V27.848C50.6933 28.68 50.8319 29.2773 51.1093 29.64C51.4079 30.0027 51.8666 30.184 52.4853 30.184C53.1039 30.184 53.7759 29.9813 54.5013 29.576L55.9413 32.2ZM64.626 15.592C67.122 15.592 69.0633 16.392 70.45 17.992C71.858 19.5707 72.562 21.7467 72.562 24.52C72.562 26.2907 72.242 27.8587 71.602 29.224C70.962 30.568 70.0447 31.6133 68.85 32.36C67.6553 33.1067 66.2367 33.48 64.594 33.48C62.098 33.48 60.146 32.6907 58.738 31.112C57.33 29.512 56.626 27.3147 56.626 24.52C56.626 22.7493 56.946 21.192 57.586 19.848C58.226 18.504 59.1433 17.4587 60.338 16.712C61.554 15.9653 62.9833 15.592 64.626 15.592ZM64.626 18.696C62.1727 18.696 60.946 20.6373 60.946 24.52C60.946 26.5253 61.2447 28.008 61.842 28.968C62.4607 29.9067 63.378 30.376 64.594 30.376C65.81 30.376 66.7167 29.896 67.314 28.936C67.9327 27.976 68.242 26.504 68.242 24.52C68.242 22.536 67.9327 21.0747 67.314 20.136C66.7167 19.176 65.8207 18.696 64.626 18.696ZM84.7535 15.624C85.3722 15.624 85.9375 15.6987 86.4495 15.848L85.7455 19.816C85.2335 19.688 84.7322 19.624 84.2415 19.624C83.2388 19.624 82.4495 19.9867 81.8735 20.712C81.2975 21.416 80.8388 22.504 80.4975 23.976V33H76.4015V16.072H79.9535L80.3375 19.4C80.7428 18.184 81.3295 17.256 82.0975 16.616C82.8655 15.9547 83.7508 15.624 84.7535 15.624ZM93.933 15.592C96.2157 15.592 98.221 16.264 99.949 17.608L98.349 20.008C96.8983 19.0907 95.4797 18.632 94.093 18.632C93.2823 18.632 92.653 18.792 92.205 19.112C91.757 19.4107 91.533 19.816 91.533 20.328C91.533 20.712 91.629 21.032 91.821 21.288C92.013 21.544 92.3543 21.7893 92.845 22.024C93.357 22.2373 94.1037 22.4827 95.085 22.76C96.9197 23.2507 98.2743 23.9013 99.149 24.712C100.045 25.5227 100.493 26.6533 100.493 28.104C100.493 29.7893 99.8103 31.112 98.445 32.072C97.0797 33.0107 95.3837 33.48 93.357 33.48C91.9703 33.48 90.701 33.2667 89.549 32.84C88.4183 32.4133 87.437 31.8267 86.605 31.08L88.653 28.776C90.125 29.8853 91.661 30.44 93.261 30.44C94.1783 30.44 94.9037 30.2587 95.437 29.896C95.9917 29.5333 96.269 29.032 96.269 28.392C96.269 27.9013 96.1623 27.5173 95.949 27.24C95.757 26.9413 95.3943 26.6853 94.861 26.472C94.349 26.2373 93.5383 25.96 92.429 25.64C90.701 25.1707 89.4317 24.52 88.621 23.688C87.8103 22.8347 87.405 21.7787 87.405 20.52C87.405 19.5813 87.6717 18.7387 88.205 17.992C88.7597 17.2453 89.5277 16.6587 90.509 16.232C91.5117 15.8053 92.653 15.592 93.933 15.592ZM112.832 15.592C114.325 15.592 115.498 16.0507 116.352 16.968C117.205 17.8853 117.632 19.144 117.632 20.744V33H113.536V21.384C113.536 20.3813 113.354 19.6773 112.992 19.272C112.65 18.8667 112.138 18.664 111.456 18.664C110.773 18.664 110.144 18.888 109.568 19.336C108.992 19.7627 108.437 20.3813 107.904 21.192V33H103.808V9.32L107.904 8.904V18.088C109.269 16.424 110.912 15.592 112.832 15.592ZM126.498 16.072V33H122.402V16.072H126.498ZM124.418 7.496C125.186 7.496 125.804 7.74133 126.274 8.232C126.764 8.70133 127.01 9.288 127.01 9.992C127.01 10.696 126.764 11.2827 126.274 11.752C125.804 12.2213 125.186 12.456 124.418 12.456C123.671 12.456 123.052 12.2213 122.562 11.752C122.092 11.2827 121.858 10.696 121.858 9.992C121.858 9.288 122.092 8.70133 122.562 8.232C123.052 7.74133 123.671 7.496 124.418 7.496ZM140.201 15.592C142.163 15.592 143.699 16.3813 144.809 17.96C145.918 19.5173 146.473 21.704 146.473 24.52C146.473 26.2693 146.195 27.8267 145.641 29.192C145.107 30.536 144.339 31.592 143.337 32.36C142.334 33.1067 141.15 33.48 139.785 33.48C138.867 33.48 138.025 33.288 137.257 32.904C136.51 32.52 135.859 31.976 135.305 31.272L135.049 33H131.433V9.288L135.529 8.84V17.992C136.083 17.224 136.755 16.6373 137.545 16.232C138.355 15.8053 139.241 15.592 140.201 15.592ZM138.665 30.408C139.774 30.408 140.638 29.9387 141.257 29C141.875 28.04 142.185 26.5467 142.185 24.52C142.185 22.3867 141.897 20.8827 141.321 20.008C140.745 19.112 139.934 18.664 138.889 18.664C137.587 18.664 136.467 19.432 135.529 20.968V28.456C135.891 29.0747 136.339 29.5547 136.873 29.896C137.427 30.2373 138.025 30.408 138.665 30.408ZM158.847 15.624C159.466 15.624 160.031 15.6987 160.543 15.848L159.839 19.816C159.327 19.688 158.826 19.624 158.335 19.624C157.333 19.624 156.543 19.9867 155.967 20.712C155.391 21.416 154.933 22.504 154.591 23.976V33H150.495V16.072H154.047L154.431 19.4C154.837 18.184 155.423 17.256 156.191 16.616C156.959 15.9547 157.845 15.624 158.847 15.624ZM167.185 16.072V33H163.089V16.072H167.185ZM165.105 7.496C165.873 7.496 166.492 7.74133 166.961 8.232C167.452 8.70133 167.697 9.288 167.697 9.992C167.697 10.696 167.452 11.2827 166.961 11.752C166.492 12.2213 165.873 12.456 165.105 12.456C164.358 12.456 163.74 12.2213 163.249 11.752C162.78 11.2827 162.545 10.696 162.545 9.992C162.545 9.288 162.78 8.70133 163.249 8.232C163.74 7.74133 164.358 7.496 165.105 7.496ZM186.36 9.288V33H182.744L182.456 30.856C181.923 31.6667 181.24 32.3067 180.408 32.776C179.598 33.2453 178.67 33.48 177.624 33.48C175.555 33.48 173.966 32.68 172.856 31.08C171.747 29.48 171.192 27.304 171.192 24.552C171.192 22.824 171.47 21.288 172.024 19.944C172.579 18.5787 173.368 17.512 174.392 16.744C175.438 15.976 176.643 15.592 178.008 15.592C179.63 15.592 181.048 16.2 182.264 17.416V8.84L186.36 9.288ZM178.776 30.376C179.502 30.376 180.142 30.2053 180.696 29.864C181.251 29.5013 181.774 28.9467 182.264 28.2V20.456C181.774 19.8587 181.272 19.4107 180.76 19.112C180.27 18.8133 179.694 18.664 179.032 18.664C177.944 18.664 177.08 19.1547 176.44 20.136C175.822 21.096 175.512 22.5573 175.512 24.52C175.512 26.6107 175.79 28.1147 176.344 29.032C176.899 29.928 177.71 30.376 178.776 30.376Z" fill="white"/>
<path d="M90.1061 38H189.062V44H82L90.1061 38Z" fill="#0085FF"/>
<path d="M98.8069 0H0.0624313V6H106.901L98.8069 0Z" fill="#FF8A00"/>
</svg>
